<svg xmlns="http://www.w3.org/2000/svg" version="1.1" viewBox="0.00 0.00 500.00 500.00">
<g stroke-width="2.00" fill="none" stroke-linecap="butt">
<path stroke="#063745" vector-effect="non-scaling-stroke" d="
  M 317.36 183.41
  Q 316.30 185.55 314.69 184.85
  Q 314.20 184.65 313.68 184.64
  Q 310.29 184.59 307.40 183.74
  Q 306.96 183.61 306.69 183.24
  Q 306.34 182.76 305.73 182.60
  Q 305.17 182.45 305.03 183.01
  L 304.83 183.73"
/>
<path stroke="#845e4f" vector-effect="non-scaling-stroke" d="
  M 304.83 183.73
  Q 301.23 169.40 290.24 159.01"
/>
<path stroke="#846e63" vector-effect="non-scaling-stroke" d="
  M 290.24 159.01
  Q 284.21 153.26 276.62 149.36"
/>
<path stroke="#847970" vector-effect="non-scaling-stroke" d="
  M 196.83 204.07
  Q 197.60 204.34 199.07 204.26"
/>
<path stroke="#063745" vector-effect="non-scaling-stroke" d="
  M 199.07 204.26
  Q 199.12 205.82 198.24 206.69
  Q 197.88 207.04 197.83 207.54
  Q 197.77 208.20 197.18 208.51
  Q 196.50 208.87 196.46 209.60
  Q 196.46 209.82 196.34 210.00
  Q 195.85 210.72 194.96 210.77
  Q 194.64 210.79 194.62 211.11
  Q 194.49 212.65 193.87 214.09
  Q 193.68 214.53 193.25 214.73
  L 192.40 215.13
  A 0.95 0.95 0.0 0 0 191.87 215.98
  L 191.87 217.44
  Q 191.87 217.95 191.56 218.36
  Q 190.95 219.18 191.12 220.22
  Q 191.21 220.75 191.04 221.26
  Q 190.53 222.83 190.20 224.06
  Q 189.98 224.85 189.00 226.71
  Q 188.20 228.21 188.31 229.99"
/>
<path stroke="#ff8a62" vector-effect="non-scaling-stroke" d="
  M 290.24 159.01
  Q 289.90 159.55 289.16 159.23
  Q 288.70 159.02 288.85 159.48
  Q 288.89 159.60 288.84 159.76
  Q 288.73 160.11 288.37 160.17
  Q 287.25 160.35 286.43 161.07
  Q 286.18 161.28 286.15 161.61
  Q 286.06 162.52 285.23 162.91
  C 284.19 163.40 283.26 164.83 282.93 165.84
  Q 282.76 166.38 283.05 166.87
  Q 284.55 169.33 285.92 171.42
  Q 287.49 173.80 288.53 175.93
  Q 290.68 180.33 291.28 185.72
  A 1.64 1.58 -7.6 0 1 289.89 187.47
  Q 289.51 187.53 288.04 187.44"
/>
<path stroke="#816458" vector-effect="non-scaling-stroke" d="
  M 288.04 187.44
  C 287.24 183.21 284.20 177.73 279.43 177.27
  C 274.09 176.75 269.37 177.80 266.80 183.01
  Q 264.29 188.12 266.54 193.61"
/>
<path stroke="#ff8a62" vector-effect="non-scaling-stroke" d="
  M 266.54 193.61
  Q 266.45 193.91 265.84 193.89
  Q 265.26 193.88 265.07 194.44
  Q 264.82 195.15 264.12 195.33
  Q 263.62 195.46 263.21 195.78
  L 259.75 198.49"
/>
<path stroke="#816458" vector-effect="non-scaling-stroke" d="
  M 259.75 198.49
  Q 251.36 197.00 242.59 197.77
  Q 241.95 197.83 241.52 198.29
  C 238.18 201.84 242.56 206.79 245.79 208.51
  A 1.03 0.99 10.2 0 1 246.31 209.23
  C 246.93 213.27 245.52 218.14 241.13 219.29
  Q 233.55 221.27 230.78 213.67
  A 2.32 2.32 0.0 0 0 227.87 212.26
  C 224.51 213.39 225.55 218.17 227.09 220.28"
/>
<path stroke="#ff8a62" vector-effect="non-scaling-stroke" d="
  M 227.09 220.28
  Q 227.23 220.84 226.13 220.99
  A 0.42 0.42 0.0 0 1 225.71 220.37
  L 225.91 220.00
  Q 226.04 219.74 225.76 219.68
  Q 224.45 219.43 223.33 220.33
  Q 223.00 220.60 223.31 220.90
  Q 223.60 221.17 223.09 221.72
  Q 222.78 222.07 222.34 222.24
  L 220.71 222.88
  Q 220.35 223.03 220.27 223.41
  Q 220.15 224.04 219.82 224.64
  Q 219.53 225.16 219.00 224.89
  Q 218.74 224.77 218.66 224.50
  Q 218.58 224.23 218.64 223.94
  Q 218.70 223.69 218.60 223.44
  Q 218.42 222.95 218.22 223.44
  L 217.60 225.02
  Q 217.37 225.60 217.08 225.05
  Q 216.74 224.41 216.51 225.17
  Q 216.38 225.58 215.99 225.77
  Q 214.72 226.37 215.73 227.33
  Q 216.03 227.62 215.64 227.73
  Q 213.70 228.27 214.26 230.38
  Q 214.37 230.78 213.99 230.94
  Q 212.70 231.47 212.88 232.95
  Q 212.95 233.51 212.59 233.94
  Q 212.19 234.41 212.39 235.02
  Q 212.54 235.49 212.29 235.93
  Q 211.08 238.11 209.75 239.26"
/>
<path stroke="#816458" vector-effect="non-scaling-stroke" d="
  M 209.75 239.26
  Q 203.97 233.47 200.51 226.69
  Q 200.13 225.94 200.96 225.78
  L 208.43 224.27
  A 3.23 3.22 -69.6 0 0 209.80 223.64
  Q 211.91 221.96 211.53 220.28
  Q 211.06 218.16 208.90 218.32
  L 199.12 219.00"
/>
<path stroke="#816458" vector-effect="non-scaling-stroke" d="
  M 197.51 211.36
  Q 200.73 211.05 204.35 210.91
  Q 207.07 210.81 208.10 210.27
  C 210.96 208.79 209.68 203.85 205.78 203.93"
/>
<path stroke="#ffa583" vector-effect="non-scaling-stroke" d="
  M 205.78 203.93
  L 207.78 203.76
  Q 208.40 203.71 208.32 203.10
  Q 208.28 202.73 208.44 202.39
  Q 208.79 201.65 209.49 201.21
  Q 210.55 200.54 211.21 199.77
  Q 213.05 197.63 214.84 195.69"
/>
<path stroke="#846e63" vector-effect="non-scaling-stroke" d="
  M 214.84 195.69
  Q 219.46 200.47 226.24 199.19
  C 233.83 197.76 237.09 190.00 233.74 183.33"
/>
<path stroke="#ffa583" vector-effect="non-scaling-stroke" d="
  M 233.74 183.33
  L 235.40 182.23
  Q 235.82 181.95 236.32 181.88
  C 238.09 181.63 239.44 180.20 240.99 179.35
  Q 242.19 178.69 243.29 177.64
  Q 246.32 174.75 249.88 172.64
  Q 250.09 172.52 250.10 172.28
  Q 250.11 171.87 250.44 171.63
  Q 251.96 170.48 253.60 169.16
  C 255.18 167.90 256.93 165.88 258.78 164.40
  Q 259.98 163.44 260.88 162.33
  Q 262.07 160.85 263.23 159.43
  C 264.28 158.16 264.93 156.61 265.65 155.13
  A 1.44 1.43 31.2 0 0 265.21 153.35
  Q 264.43 152.78 263.89 151.94
  Q 263.59 151.48 263.04 151.45
  Q 262.16 151.41 262.08 150.96"
/>
<path stroke="#73898f" vector-effect="non-scaling-stroke" d="
  M 309.63 267.73
  Q 309.78 274.57 304.85 279.85
  C 298.75 286.38 288.39 287.43 280.95 282.12
  Q 272.91 276.37 273.67 265.49
  Q 273.71 264.90 273.14 265.08
  Q 249.51 272.41 227.13 264.65
  Q 226.47 264.42 226.58 265.11
  Q 228.06 274.32 221.64 280.31
  Q 216.04 285.54 209.32 285.51
  C 199.02 285.46 191.42 278.32 190.79 267.76"
/>
<path stroke="#603830" vector-effect="non-scaling-stroke" d="
  M 229.50 252.14
  Q 248.01 260.13 266.98 253.94
  Q 274.92 251.35 280.73 247.34
  C 288.45 242.01 295.18 235.66 300.06 227.11
  A 0.82 0.82 0.0 0 0 299.49 225.89
  Q 295.31 225.19 291.01 223.97
  Q 288.54 223.26 288.13 221.08"
/>
<path stroke="#815444" vector-effect="non-scaling-stroke" d="
  M 304.83 183.73
  Q 307.40 193.48 306.54 203.90
  Q 306.50 204.42 305.97 204.40
  L 295.56 204.06
  Q 292.34 203.96 291.32 207.02
  Q 291.17 207.50 291.33 207.99
  Q 292.19 210.59 294.52 210.77
  Q 298.85 211.11 304.27 211.52
  Q 305.78 211.64 305.31 213.07
  L 303.57 218.37
  A 1.32 1.31 14.4 0 1 302.08 219.25
  Q 294.28 217.77 290.77 218.22
  Q 288.21 218.55 288.13 221.08"
/>
<path stroke="#de5e3a" vector-effect="non-scaling-stroke" d="
  M 288.13 221.08
  Q 286.73 221.17 286.33 218.82
  Q 286.06 217.23 285.25 218.63
  Q 282.60 223.18 280.13 226.93
  Q 277.49 230.95 273.04 235.12
  C 268.78 239.11 263.56 242.08 258.55 244.91
  Q 250.47 249.48 240.50 251.05
  Q 237.74 251.49 229.50 252.14"
/>
<path stroke="#815444" vector-effect="non-scaling-stroke" d="
  M 229.50 252.14
  Q 223.56 250.10 219.64 247.36
  Q 216.91 245.45 209.75 239.26"
/>
<path stroke="#815444" vector-effect="non-scaling-stroke" d="
  M 227.09 220.28
  Q 230.92 226.60 238.00 227.23
  C 243.26 227.69 247.12 225.12 249.80 220.63
  Q 250.22 219.93 250.66 220.62
  Q 253.97 225.86 259.50 226.97
  C 265.20 228.11 271.53 224.66 274.09 219.44
  C 275.40 216.76 275.51 211.92 271.29 212.21
  A 1.28 1.28 0.0 0 0 270.28 212.81
  C 268.69 215.32 269.20 217.65 265.88 218.96
  Q 262.04 220.46 258.20 218.64
  C 254.52 216.88 253.51 212.72 254.16 209.05
  Q 254.25 208.54 254.72 208.30
  Q 255.74 207.77 256.70 207.19
  Q 261.14 204.50 259.75 198.49"
/>
<path stroke="#815444" vector-effect="non-scaling-stroke" d="
  M 266.54 193.61
  Q 271.69 201.71 280.49 198.99
  Q 288.38 196.55 288.04 187.44"
/>
<path stroke="#847970" vector-effect="non-scaling-stroke" d="
  M 233.74 183.33
  Q 230.88 177.61 223.49 177.18
  Q 218.08 176.86 215.03 181.26
  Q 210.22 188.23 214.84 195.69"
/>
<path stroke="#816f65" vector-effect="non-scaling-stroke" d="
  M 205.78 203.93
  L 199.07 204.26"
/>
<path stroke="#846e63" vector-effect="non-scaling-stroke" d="
  M 207.44 145.64
  C 203.43 142.48 199.39 139.64 195.51 136.09
  A 0.57 0.56 -25.4 0 0 195.05 135.93
  Q 194.52 135.97 194.51 136.29
  Q 194.19 146.30 195.48 157.51
  Q 195.59 158.46 196.15 157.68
  Q 200.86 151.08 207.42 146.46
  A 0.51 0.51 0.0 0 0 207.44 145.64"
/>
<path stroke="#845e4f" vector-effect="non-scaling-stroke" d="
  M 304.00 157.19
  A 0.43 0.43 0.0 0 0 304.67 157.23
  Q 304.96 156.93 305.01 156.52
  Q 306.34 147.01 305.97 136.59
  A 0.37 0.36 70.2 0 0 305.38 136.31
  L 294.02 145.27
  Q 293.02 146.06 294.05 146.81
  Q 299.40 150.76 304.00 157.19"
/>
</g>
<path fill="#094150" d="
  M 317.36 183.41
  Q 316.30 185.55 314.69 184.85
  Q 314.20 184.65 313.68 184.64
  Q 310.29 184.59 307.40 183.74
  Q 306.96 183.61 306.69 183.24
  Q 306.34 182.76 305.73 182.60
  Q 305.17 182.45 305.03 183.01
  L 304.83 183.73
  Q 301.23 169.40 290.24 159.01
  Q 284.21 153.26 276.62 149.36
  Q 273.93 147.54 271.71 146.60
  Q 256.07 140.03 239.87 143.35
  Q 231.48 145.06 222.11 150.01
  C 219.29 151.51 217.03 153.66 214.43 155.45
  Q 211.91 157.18 209.37 159.77
  Q 194.72 174.65 193.17 195.46
  Q 192.87 199.40 193.32 203.34
  Q 193.38 203.87 193.89 204.03
  Q 195.08 204.40 196.83 204.07
  Q 197.60 204.34 199.07 204.26
  Q 199.12 205.82 198.24 206.69
  Q 197.88 207.04 197.83 207.54
  Q 197.77 208.20 197.18 208.51
  Q 196.50 208.87 196.46 209.60
  Q 196.46 209.82 196.34 210.00
  Q 195.85 210.72 194.96 210.77
  Q 194.64 210.79 194.62 211.11
  Q 194.49 212.65 193.87 214.09
  Q 193.68 214.53 193.25 214.73
  L 192.40 215.13
  A 0.95 0.95 0.0 0 0 191.87 215.98
  L 191.87 217.44
  Q 191.87 217.95 191.56 218.36
  Q 190.95 219.18 191.12 220.22
  Q 191.21 220.75 191.04 221.26
  Q 190.53 222.83 190.20 224.06
  Q 189.98 224.85 189.00 226.71
  Q 188.20 228.21 188.31 229.99
  Q 181.17 232.51 174.60 235.87
  Q 173.61 236.38 171.96 236.02
  C 169.26 235.43 168.18 232.01 169.74 229.92
  Q 170.60 228.77 173.10 227.55
  Q 178.86 224.76 184.68 222.63
  A 0.60 0.59 -24.7 0 0 185.00 221.78
  Q 183.14 218.51 182.84 215.07
  A 1.40 1.40 0.0 0 0 181.11 213.84
  Q 175.28 215.31 169.46 216.90
  C 163.99 218.39 161.37 212.32 165.49 209.18
  C 167.08 207.97 169.07 208.15 170.92 207.73
  Q 175.80 206.62 180.32 205.70
  A 1.00 1.00 0.0 0 0 181.12 204.67
  Q 180.70 194.68 183.09 183.88
  Q 184.35 178.19 186.82 173.01
  C 187.19 172.22 187.07 170.92 186.78 170.10
  Q 185.37 166.12 184.53 161.60
  Q 181.64 146.21 184.23 130.30
  Q 185.14 124.67 187.01 120.27
  Q 187.63 118.80 189.10 119.42
  Q 191.15 120.28 192.96 121.39
  C 201.86 126.86 211.06 132.58 220.50 137.42
  Q 220.98 137.67 221.49 137.46
  C 234.61 132.19 249.26 129.18 262.34 132.17
  Q 268.94 133.68 275.95 136.07
  Q 277.94 136.74 279.73 137.81
  Q 280.21 138.10 280.62 137.71
  C 282.01 136.42 283.94 135.71 285.05 135.04
  C 291.02 131.38 297.09 127.95 302.89 124.21
  Q 306.41 121.94 310.19 119.94
  Q 311.85 119.07 312.81 119.87
  Q 313.58 120.52 313.85 121.42
  Q 321.44 147.04 313.58 171.15
  Q 313.42 171.65 313.58 172.15
  L 317.36 183.41
  Z
  M 207.44 145.64
  C 203.43 142.48 199.39 139.64 195.51 136.09
  A 0.57 0.56 -25.4 0 0 195.05 135.93
  Q 194.52 135.97 194.51 136.29
  Q 194.19 146.30 195.48 157.51
  Q 195.59 158.46 196.15 157.68
  Q 200.86 151.08 207.42 146.46
  A 0.51 0.51 0.0 0 0 207.44 145.64
  Z
  M 304.00 157.19
  A 0.43 0.43 0.0 0 0 304.67 157.23
  Q 304.96 156.93 305.01 156.52
  Q 306.34 147.01 305.97 136.59
  A 0.37 0.36 70.2 0 0 305.38 136.31
  L 294.02 145.27
  Q 293.02 146.06 294.05 146.81
  Q 299.40 150.76 304.00 157.19
  Z"
/>
<path fill="#ff9a75" d="
  M 195.51 136.09
  C 199.39 139.64 203.43 142.48 207.44 145.64
  A 0.51 0.51 0.0 0 1 207.42 146.46
  Q 200.86 151.08 196.15 157.68
  Q 195.59 158.46 195.48 157.51
  Q 194.19 146.30 194.51 136.29
  Q 194.52 135.97 195.05 135.93
  A 0.57 0.56 -25.4 0 1 195.51 136.09
  Z"
/>
<path fill="#ff7a4e" d="
  M 304.00 157.19
  Q 299.40 150.76 294.05 146.81
  Q 293.02 146.06 294.02 145.27
  L 305.38 136.31
  A 0.37 0.36 70.2 0 1 305.97 136.59
  Q 306.34 147.01 305.01 156.52
  Q 304.96 156.93 304.67 157.23
  A 0.43 0.43 0.0 0 1 304.00 157.19
  Z"
/>
<path fill="#ff9a75" d="
  M 290.24 159.01
  Q 289.90 159.55 289.16 159.23
  Q 288.70 159.02 288.85 159.48
  Q 288.89 159.60 288.84 159.76
  Q 288.73 160.11 288.37 160.17
  Q 287.25 160.35 286.43 161.07
  Q 286.18 161.28 286.15 161.61
  Q 286.06 162.52 285.23 162.91
  C 284.19 163.40 283.26 164.83 282.93 165.84
  Q 282.76 166.38 283.05 166.87
  Q 284.55 169.33 285.92 171.42
  Q 287.49 173.80 288.53 175.93
  Q 290.68 180.33 291.28 185.72
  A 1.64 1.58 -7.6 0 1 289.89 187.47
  Q 289.51 187.53 288.04 187.44
  C 287.24 183.21 284.20 177.73 279.43 177.27
  C 274.09 176.75 269.37 177.80 266.80 183.01
  Q 264.29 188.12 266.54 193.61
  Q 266.45 193.91 265.84 193.89
  Q 265.26 193.88 265.07 194.44
  Q 264.82 195.15 264.12 195.33
  Q 263.62 195.46 263.21 195.78
  L 259.75 198.49
  Q 251.36 197.00 242.59 197.77
  Q 241.95 197.83 241.52 198.29
  C 238.18 201.84 242.56 206.79 245.79 208.51
  A 1.03 0.99 10.2 0 1 246.31 209.23
  C 246.93 213.27 245.52 218.14 241.13 219.29
  Q 233.55 221.27 230.78 213.67
  A 2.32 2.32 0.0 0 0 227.87 212.26
  C 224.51 213.39 225.55 218.17 227.09 220.28
  Q 227.23 220.84 226.13 220.99
  A 0.42 0.42 0.0 0 1 225.71 220.37
  L 225.91 220.00
  Q 226.04 219.74 225.76 219.68
  Q 224.45 219.43 223.33 220.33
  Q 223.00 220.60 223.31 220.90
  Q 223.60 221.17 223.09 221.72
  Q 222.78 222.07 222.34 222.24
  L 220.71 222.88
  Q 220.35 223.03 220.27 223.41
  Q 220.15 224.04 219.82 224.64
  Q 219.53 225.16 219.00 224.89
  Q 218.74 224.77 218.66 224.50
  Q 218.58 224.23 218.64 223.94
  Q 218.70 223.69 218.60 223.44
  Q 218.42 222.95 218.22 223.44
  L 217.60 225.02
  Q 217.37 225.60 217.08 225.05
  Q 216.74 224.41 216.51 225.17
  Q 216.38 225.58 215.99 225.77
  Q 214.72 226.37 215.73 227.33
  Q 216.03 227.62 215.64 227.73
  Q 213.70 228.27 214.26 230.38
  Q 214.37 230.78 213.99 230.94
  Q 212.70 231.47 212.88 232.95
  Q 212.95 233.51 212.59 233.94
  Q 212.19 234.41 212.39 235.02
  Q 212.54 235.49 212.29 235.93
  Q 211.08 238.11 209.75 239.26
  Q 203.97 233.47 200.51 226.69
  Q 200.13 225.94 200.96 225.78
  L 208.43 224.27
  A 3.23 3.22 -69.6 0 0 209.80 223.64
  Q 211.91 221.96 211.53 220.28
  Q 211.06 218.16 208.90 218.32
  L 199.12 219.00
  L 197.51 211.36
  Q 200.73 211.05 204.35 210.91
  Q 207.07 210.81 208.10 210.27
  C 210.96 208.79 209.68 203.85 205.78 203.93
  L 207.78 203.76
  Q 208.40 203.71 208.32 203.10
  Q 208.28 202.73 208.44 202.39
  Q 208.79 201.65 209.49 201.21
  Q 210.55 200.54 211.21 199.77
  Q 213.05 197.63 214.84 195.69
  Q 219.46 200.47 226.24 199.19
  C 233.83 197.76 237.09 190.00 233.74 183.33
  L 235.40 182.23
  Q 235.82 181.95 236.32 181.88
  C 238.09 181.63 239.44 180.20 240.99 179.35
  Q 242.19 178.69 243.29 177.64
  Q 246.32 174.75 249.88 172.64
  Q 250.09 172.52 250.10 172.28
  Q 250.11 171.87 250.44 171.63
  Q 251.96 170.48 253.60 169.16
  C 255.18 167.90 256.93 165.88 258.78 164.40
  Q 259.98 163.44 260.88 162.33
  Q 262.07 160.85 263.23 159.43
  C 264.28 158.16 264.93 156.61 265.65 155.13
  A 1.44 1.43 31.2 0 0 265.21 153.35
  Q 264.43 152.78 263.89 151.94
  Q 263.59 151.48 263.04 151.45
  Q 262.16 151.41 262.08 150.96
  Q 272.73 152.65 275.96 154.29
  Q 278.28 155.47 279.43 155.80
  Q 280.01 155.97 279.74 155.43
  L 276.62 149.36
  Q 284.21 153.26 290.24 159.01
  Z"
/>
<path fill="#ffb090" d="
  M 262.08 150.96
  Q 262.16 151.41 263.04 151.45
  Q 263.59 151.48 263.89 151.94
  Q 264.43 152.78 265.21 153.35
  A 1.44 1.43 31.2 0 1 265.65 155.13
  C 264.93 156.61 264.28 158.16 263.23 159.43
  Q 262.07 160.85 260.88 162.33
  Q 259.98 163.44 258.78 164.40
  C 256.93 165.88 255.18 167.90 253.60 169.16
  Q 251.96 170.48 250.44 171.63
  Q 250.11 171.87 250.10 172.28
  Q 250.09 172.52 249.88 172.64
  Q 246.32 174.75 243.29 177.64
  Q 242.19 178.69 240.99 179.35
  C 239.44 180.20 238.09 181.63 236.32 181.88
  Q 235.82 181.95 235.40 182.23
  L 233.74 183.33
  Q 230.88 177.61 223.49 177.18
  Q 218.08 176.86 215.03 181.26
  Q 210.22 188.23 214.84 195.69
  Q 213.05 197.63 211.21 199.77
  Q 210.55 200.54 209.49 201.21
  Q 208.79 201.65 208.44 202.39
  Q 208.28 202.73 208.32 203.10
  Q 208.40 203.71 207.78 203.76
  L 205.78 203.93
  L 199.07 204.26
  Q 197.60 204.34 196.83 204.07
  Q 198.01 194.93 199.08 190.51
  Q 199.96 186.88 201.84 182.67
  Q 203.41 179.14 205.66 175.88
  Q 211.75 167.06 219.22 160.97
  C 223.80 157.24 228.97 155.72 234.34 153.52
  C 243.01 149.95 252.83 149.34 262.08 150.96
  Z"
/>
<path fill="#ff7a4e" d="
  M 290.24 159.01
  Q 301.23 169.40 304.83 183.73
  Q 307.40 193.48 306.54 203.90
  Q 306.50 204.42 305.97 204.40
  L 295.56 204.06
  Q 292.34 203.96 291.32 207.02
  Q 291.17 207.50 291.33 207.99
  Q 292.19 210.59 294.52 210.77
  Q 298.85 211.11 304.27 211.52
  Q 305.78 211.64 305.31 213.07
  L 303.57 218.37
  A 1.32 1.31 14.4 0 1 302.08 219.25
  Q 294.28 217.77 290.77 218.22
  Q 288.21 218.55 288.13 221.08
  Q 286.73 221.17 286.33 218.82
  Q 286.06 217.23 285.25 218.63
  Q 282.60 223.18 280.13 226.93
  Q 277.49 230.95 273.04 235.12
  C 268.78 239.11 263.56 242.08 258.55 244.91
  Q 250.47 249.48 240.50 251.05
  Q 237.74 251.49 229.50 252.14
  Q 223.56 250.10 219.64 247.36
  Q 216.91 245.45 209.75 239.26
  Q 211.08 238.11 212.29 235.93
  Q 212.54 235.49 212.39 235.02
  Q 212.19 234.41 212.59 233.94
  Q 212.95 233.51 212.88 232.95
  Q 212.70 231.47 213.99 230.94
  Q 214.37 230.78 214.26 230.38
  Q 213.70 228.27 215.64 227.73
  Q 216.03 227.62 215.73 227.33
  Q 214.72 226.37 215.99 225.77
  Q 216.38 225.58 216.51 225.17
  Q 216.74 224.41 217.08 225.05
  Q 217.37 225.60 217.60 225.02
  L 218.22 223.44
  Q 218.42 222.95 218.60 223.44
  Q 218.70 223.69 218.64 223.94
  Q 218.58 224.23 218.66 224.50
  Q 218.74 224.77 219.00 224.89
  Q 219.53 225.16 219.82 224.64
  Q 220.15 224.04 220.27 223.41
  Q 220.35 223.03 220.71 222.88
  L 222.34 222.24
  Q 222.78 222.07 223.09 221.72
  Q 223.60 221.17 223.31 220.90
  Q 223.00 220.60 223.33 220.33
  Q 224.45 219.43 225.76 219.68
  Q 226.04 219.74 225.91 220.00
  L 225.71 220.37
  A 0.42 0.42 0.0 0 0 226.13 220.99
  Q 227.23 220.84 227.09 220.28
  Q 230.92 226.60 238.00 227.23
  C 243.26 227.69 247.12 225.12 249.80 220.63
  Q 250.22 219.93 250.66 220.62
  Q 253.97 225.86 259.50 226.97
  C 265.20 228.11 271.53 224.66 274.09 219.44
  C 275.40 216.76 275.51 211.92 271.29 212.21
  A 1.28 1.28 0.0 0 0 270.28 212.81
  C 268.69 215.32 269.20 217.65 265.88 218.96
  Q 262.04 220.46 258.20 218.64
  C 254.52 216.88 253.51 212.72 254.16 209.05
  Q 254.25 208.54 254.72 208.30
  Q 255.74 207.77 256.70 207.19
  Q 261.14 204.50 259.75 198.49
  L 263.21 195.78
  Q 263.62 195.46 264.12 195.33
  Q 264.82 195.15 265.07 194.44
  Q 265.26 193.88 265.84 193.89
  Q 266.45 193.91 266.54 193.61
  Q 271.69 201.71 280.49 198.99
  Q 288.38 196.55 288.04 187.44
  Q 289.51 187.53 289.89 187.47
  A 1.64 1.58 -7.6 0 0 291.28 185.72
  Q 290.68 180.33 288.53 175.93
  Q 287.49 173.80 285.92 171.42
  Q 284.55 169.33 283.05 166.87
  Q 282.76 166.38 282.93 165.84
  C 283.26 164.83 284.19 163.40 285.23 162.91
  Q 286.06 162.52 286.15 161.61
  Q 286.18 161.28 286.43 161.07
  Q 287.25 160.35 288.37 160.17
  Q 288.73 160.11 288.84 159.76
  Q 288.89 159.60 288.85 159.48
  Q 288.70 159.02 289.16 159.23
  Q 289.90 159.55 290.24 159.01
  Z"
/>
<path fill="#094150" d="
  M 233.74 183.33
  C 237.09 190.00 233.83 197.76 226.24 199.19
  Q 219.46 200.47 214.84 195.69
  Q 210.22 188.23 215.03 181.26
  Q 218.08 176.86 223.49 177.18
  Q 230.88 177.61 233.74 183.33
  Z"
/>
<path fill="#022d3a" d="
  M 288.04 187.44
  Q 288.38 196.55 280.49 198.99
  Q 271.69 201.71 266.54 193.61
  Q 264.29 188.12 266.80 183.01
  C 269.37 177.80 274.09 176.75 279.43 177.27
  C 284.20 177.73 287.24 183.21 288.04 187.44
  Z"
/>
<path fill="#022d3a" d="
  M 317.36 183.41
  Q 318.83 189.94 318.89 191.96
  Q 319.11 198.22 318.99 204.55
  A 1.00 1.00 0.0 0 0 319.79 205.55
  Q 326.25 206.95 332.67 208.26
  C 339.83 209.72 337.43 218.89 330.74 217.03
  Q 325.08 215.46 319.04 213.69
  Q 318.23 213.45 317.98 214.25
  L 315.85 221.07
  Q 315.50 222.17 316.55 222.66
  L 328.04 227.95
  A 3.18 3.05 81.0 0 1 329.08 228.74
  Q 331.95 232.10 330.94 233.97
  Q 328.95 237.62 324.84 235.59
  Q 318.52 232.46 312.65 230.06
  Q 312.22 229.88 312.01 230.28
  Q 305.96 241.48 296.85 250.31
  Q 296.41 250.73 296.94 251.02
  C 298.90 252.10 300.84 252.53 302.53 254.15
  Q 306.35 257.79 308.37 261.67
  Q 309.33 263.52 309.63 267.73
  Q 309.78 274.57 304.85 279.85
  C 298.75 286.38 288.39 287.43 280.95 282.12
  Q 272.91 276.37 273.67 265.49
  Q 273.71 264.90 273.14 265.08
  Q 249.51 272.41 227.13 264.65
  Q 226.47 264.42 226.58 265.11
  Q 228.06 274.32 221.64 280.31
  Q 216.04 285.54 209.32 285.51
  C 199.02 285.46 191.42 278.32 190.79 267.76
  Q 191.53 259.38 197.92 253.93
  Q 199.71 252.40 202.75 251.43
  Q 204.27 250.95 203.03 249.94
  Q 200.13 247.58 198.11 244.62
  Q 196.27 241.93 193.79 238.88
  Q 190.46 234.78 188.31 229.99
  Q 188.20 228.21 189.00 226.71
  Q 189.98 224.85 190.20 224.06
  Q 190.53 222.83 191.04 221.26
  Q 191.21 220.75 191.12 220.22
  Q 190.95 219.18 191.56 218.36
  Q 191.87 217.95 191.87 217.44
  L 191.87 215.98
  A 0.95 0.95 0.0 0 1 192.40 215.13
  L 193.25 214.73
  Q 193.68 214.53 193.87 214.09
  Q 194.49 212.65 194.62 211.11
  Q 194.64 210.79 194.96 210.77
  Q 195.85 210.72 196.34 210.00
  Q 196.46 209.82 196.46 209.60
  Q 196.50 208.87 197.18 208.51
  Q 197.77 208.20 197.83 207.54
  Q 197.88 207.04 198.24 206.69
  Q 199.12 205.82 199.07 204.26
  L 205.78 203.93
  C 209.68 203.85 210.96 208.79 208.10 210.27
  Q 207.07 210.81 204.35 210.91
  Q 200.73 211.05 197.51 211.36
  L 195.16 211.82
  Q 194.55 211.94 194.73 212.54
  L 196.62 218.79
  Q 196.84 219.50 197.56 219.34
  L 199.12 219.00
  L 208.90 218.32
  Q 211.06 218.16 211.53 220.28
  Q 211.91 221.96 209.80 223.64
  A 3.23 3.22 -69.6 0 1 208.43 224.27
  L 200.96 225.78
  Q 200.13 225.94 200.51 226.69
  Q 203.97 233.47 209.75 239.26
  Q 216.91 245.45 219.64 247.36
  Q 223.56 250.10 229.50 252.14
  Q 248.01 260.13 266.98 253.94
  Q 274.92 251.35 280.73 247.34
  C 288.45 242.01 295.18 235.66 300.06 227.11
  A 0.82 0.82 0.0 0 0 299.49 225.89
  Q 295.31 225.19 291.01 223.97
  Q 288.54 223.26 288.13 221.08
  Q 288.21 218.55 290.77 218.22
  Q 294.28 217.77 302.08 219.25
  A 1.32 1.31 14.4 0 0 303.57 218.37
  L 305.31 213.07
  Q 305.78 211.64 304.27 211.52
  Q 298.85 211.11 294.52 210.77
  Q 292.19 210.59 291.33 207.99
  Q 291.17 207.50 291.32 207.02
  Q 292.34 203.96 295.56 204.06
  L 305.97 204.40
  Q 306.50 204.42 306.54 203.90
  Q 307.40 193.48 304.83 183.73
  L 305.03 183.01
  Q 305.17 182.45 305.73 182.60
  Q 306.34 182.76 306.69 183.24
  Q 306.96 183.61 307.40 183.74
  Q 310.29 184.59 313.68 184.64
  Q 314.20 184.65 314.69 184.85
  Q 316.30 185.55 317.36 183.41
  Z"
/>
<path fill="#022d3a" d="
  M 259.75 198.49
  Q 261.14 204.50 256.70 207.19
  Q 255.74 207.77 254.72 208.30
  Q 254.25 208.54 254.16 209.05
  C 253.51 212.72 254.52 216.88 258.20 218.64
  Q 262.04 220.46 265.88 218.96
  C 269.20 217.65 268.69 215.32 270.28 212.81
  A 1.28 1.28 0.0 0 1 271.29 212.21
  C 275.51 211.92 275.40 216.76 274.09 219.44
  C 271.53 224.66 265.20 228.11 259.50 226.97
  Q 253.97 225.86 250.66 220.62
  Q 250.22 219.93 249.80 220.63
  C 247.12 225.12 243.26 227.69 238.00 227.23
  Q 230.92 226.60 227.09 220.28
  C 225.55 218.17 224.51 213.39 227.87 212.26
  A 2.32 2.32 0.0 0 1 230.78 213.67
  Q 233.55 221.27 241.13 219.29
  C 245.52 218.14 246.93 213.27 246.31 209.23
  A 1.03 0.99 10.2 0 0 245.79 208.51
  C 242.56 206.79 238.18 201.84 241.52 198.29
  Q 241.95 197.83 242.59 197.77
  Q 251.36 197.00 259.75 198.49
  Z"
/>
<path fill="#bd4225" d="
  M 288.13 221.08
  Q 288.54 223.26 291.01 223.97
  Q 295.31 225.19 299.49 225.89
  A 0.82 0.82 0.0 0 1 300.06 227.11
  C 295.18 235.66 288.45 242.01 280.73 247.34
  Q 274.92 251.35 266.98 253.94
  Q 248.01 260.13 229.50 252.14
  Q 237.74 251.49 240.50 251.05
  Q 250.47 249.48 258.55 244.91
  C 263.56 242.08 268.78 239.11 273.04 235.12
  Q 277.49 230.95 280.13 226.93
  Q 282.60 223.18 285.25 218.63
  Q 286.06 217.23 286.33 218.82
  Q 286.73 221.17 288.13 221.08
  Z"
/>
<path fill="#e4e4e4" d="
  M 309.63 267.73
  Q 318.01 269.30 326.70 270.53
  Q 330.66 271.09 333.70 272.03
  Q 337.13 273.08 340.49 274.32
  Q 342.03 274.89 342.92 276.01
  A 2.13 2.13 0.0 0 1 342.19 279.23
  Q 340.10 280.26 337.68 280.80
  Q 323.07 284.06 315.93 284.77
  Q 308.57 285.49 300.75 286.81
  Q 295.24 287.75 290.67 287.89
  C 286.07 288.04 281.63 287.88 277.10 288.14
  Q 254.08 289.42 232.99 288.59
  Q 220.55 288.09 212.55 287.92
  Q 206.16 287.79 200.06 286.77
  Q 192.55 285.51 185.01 284.64
  Q 179.53 284.01 173.97 282.94
  Q 168.54 281.90 162.94 280.82
  Q 160.44 280.33 158.01 279.09
  A 1.74 1.74 0.0 0 1 157.45 276.45
  Q 158.39 275.28 159.82 274.66
  Q 167.31 271.42 175.23 270.26
  Q 177.48 269.94 179.76 269.50
  C 183.45 268.80 187.11 268.68 190.79 267.76
  C 191.42 278.32 199.02 285.46 209.32 285.51
  Q 216.04 285.54 221.64 280.31
  Q 228.06 274.32 226.58 265.11
  Q 226.47 264.42 227.13 264.65
  Q 249.51 272.41 273.14 265.08
  Q 273.71 264.90 273.67 265.49
  Q 272.91 276.37 280.95 282.12
  C 288.39 287.43 298.75 286.38 304.85 279.85
  Q 309.78 274.57 309.63 267.73
  Z"
/>
</svg>
